# xmcd
#
# Track frame offsets:
#	150
#	26105
#	51565
#	78797
#	111610
#	145570
#	178062
#	207755
#
# Disc length: 3405 seconds
#
# Revision: 1
# Processed by: cddbd v1.5.2PL0 Copyright (c) Steve Scherf et al.
# Submitted via: audiograbber 1.83.01
#
DISCID=6f0d4b08
DTITLE=Grateful Dead - 94-03-27 Nassau Veterans Memorial Coliseum, Uniondale NY
DYEAR=1900
DGENRE=
TTITLE0=Jack Straw
TTITLE1=Jack-A-Roe
TTITLE2=It's All Over Now
TTITLE3=Stagger Lee
TTITLE4=Queen Jane Approximately
TTITLE5=Candyman
TTITLE6=Easy Answers
TTITLE7=Deal
EXTD=
EXTT0=
EXTT1=
EXTT2=
EXTT3=
EXTT4=
EXTT5=
EXTT6=
EXTT7=
PLAYORDER=
